<?xml version="1.0" encoding="utf-8"?>
<!-- Generator: Adobe Illustrator 16.0.0, SVG Export Plug-In . SVG Version: 6.00 Build 0)  -->
<!DOCTYPE svg PUBLIC "-//W3C//DTD SVG 1.1//EN" "http://www.w3.org/Graphics/SVG/1.1/DTD/svg11.dtd">
<svg version="1.1" id="Layer_1" xmlns="http://www.w3.org/2000/svg" xmlns:xlink="http://www.w3.org/1999/xlink" x="0px" y="0px"
	 width="238px" height="130px" viewBox="0 0 238 130" enable-background="new 0 0 238 130" xml:space="preserve">
<g>
	<path opacity="0.3" fill="#232E38" d="M232.854,12.149c0,54.348-44.028,98.377-98.356,98.377
		c-54.314,0-98.343-44.029-98.343-98.377c0-1.274,0.024-2.55,0.107-3.827c0.103-2.845,0.317-5.663,0.691-8.429h195.133
		c0.342,2.766,0.581,5.584,0.69,8.429C232.822,9.599,232.854,10.875,232.854,12.149z"/>
	<linearGradient id="SVGID_1_" gradientUnits="userSpaceOnUse" x1="36.1538" y1="51.3691" x2="232.8535" y2="51.3691">
		<stop  offset="0" style="stop-color:#FFFFFF"/>
		<stop  offset="1" style="stop-color:#E7E7E7"/>
	</linearGradient>
	<path fill="url(#SVGID_1_)" d="M232.854,4.465c0,1.303-0.031,2.581-0.078,3.856c-2.022,52.565-45.259,94.524-98.278,94.524
		c-53.012,0-96.217-41.959-98.236-94.524c-0.083-1.276-0.107-2.553-0.107-3.856c0-1.54,0.024-3.055,0.107-4.573h196.482
		C232.822,1.41,232.854,2.925,232.854,4.465z"/>
	<g>
		<path fill="#232E38" d="M92.698,29.797v7.523h-4.592v-7.523l-7.164-12.261h4.045c0.396,0,0.713,0.095,0.94,0.278
			c0.232,0.188,0.421,0.427,0.576,0.713l2.798,5.758c0.236,0.453,0.447,0.876,0.632,1.271c0.185,0.389,0.353,0.78,0.494,1.16
			c0.139-0.389,0.297-0.779,0.479-1.175c0.183-0.395,0.385-0.812,0.619-1.255l2.774-5.758c0.06-0.118,0.137-0.232,0.227-0.352
			c0.091-0.121,0.198-0.223,0.324-0.318c0.119-0.096,0.262-0.172,0.417-0.23c0.157-0.062,0.334-0.091,0.523-0.091h4.075
			L92.698,29.797z"/>
		<path fill="#232E38" d="M102.569,23.237v8.937c0,0.694,0.156,1.233,0.474,1.614c0.314,0.38,0.783,0.571,1.398,0.571
			c0.463,0,0.894-0.097,1.297-0.286c0.405-0.19,0.795-0.458,1.174-0.8V23.237h4.21V37.32h-2.607c-0.523,0-0.867-0.238-1.036-0.707
			l-0.253-0.816c-0.271,0.262-0.554,0.497-0.843,0.715c-0.287,0.212-0.597,0.392-0.928,0.542c-0.333,0.147-0.684,0.267-1.066,0.355
			c-0.383,0.083-0.799,0.125-1.251,0.125c-0.77,0-1.447-0.135-2.041-0.399c-0.592-0.267-1.096-0.64-1.499-1.121
			c-0.408-0.48-0.72-1.044-0.927-1.696c-0.205-0.653-0.312-1.366-0.312-2.145v-8.937H102.569z"/>
		<path fill="#232E38" d="M118.181,16.993v11.394h0.624c0.265,0,0.463-0.039,0.598-0.117c0.136-0.075,0.271-0.204,0.406-0.384
			l2.665-3.97c0.16-0.225,0.342-0.391,0.551-0.508c0.207-0.112,0.479-0.17,0.801-0.17h3.86l-3.643,5.013
			c-0.342,0.45-0.748,0.821-1.222,1.113c0.209,0.154,0.399,0.331,0.576,0.535c0.167,0.205,0.333,0.434,0.483,0.687l3.966,6.735
			h-3.804c-0.312,0-0.587-0.053-0.812-0.158c-0.229-0.105-0.416-0.29-0.571-0.549L120,31.628c-0.129-0.226-0.26-0.371-0.396-0.44
			c-0.136-0.066-0.337-0.101-0.608-0.101h-0.815v6.233h-4.212V16.993H118.181z"/>
		<path fill="#232E38" d="M135.9,37.32V17.536h7.274c1.367,0,2.525,0.131,3.488,0.382c0.961,0.253,1.738,0.609,2.349,1.074
			c0.606,0.46,1.05,1.02,1.322,1.682c0.277,0.662,0.417,1.399,0.417,2.211c0,0.443-0.062,0.874-0.191,1.283
			c-0.125,0.415-0.322,0.799-0.598,1.161c-0.271,0.365-0.617,0.691-1.046,0.985c-0.425,0.295-0.933,0.548-1.53,0.765
			c1.298,0.319,2.265,0.834,2.887,1.543c0.631,0.711,0.942,1.621,0.942,2.734c0,0.842-0.167,1.626-0.487,2.352
			c-0.33,0.722-0.813,1.353-1.436,1.891c-0.629,0.539-1.408,0.959-2.329,1.264c-0.925,0.303-1.975,0.457-3.158,0.457H135.9z
			 M140.482,25.861h2.393c0.509,0,0.966-0.04,1.377-0.108c0.403-0.074,0.747-0.201,1.034-0.381c0.285-0.181,0.497-0.432,0.654-0.748
			c0.15-0.319,0.222-0.715,0.222-1.192c0-0.473-0.062-0.865-0.175-1.174c-0.115-0.314-0.298-0.564-0.541-0.755
			c-0.255-0.189-0.556-0.331-0.937-0.407c-0.373-0.083-0.82-0.123-1.335-0.123h-2.692V25.861z M140.482,28.926v4.929h3.234
			c0.607,0,1.1-0.076,1.485-0.229c0.384-0.153,0.69-0.353,0.904-0.597c0.217-0.247,0.363-0.519,0.447-0.83
			c0.082-0.306,0.124-0.619,0.124-0.936c0-0.361-0.047-0.688-0.14-0.978c-0.099-0.292-0.262-0.536-0.494-0.733
			c-0.229-0.197-0.529-0.354-0.915-0.46c-0.379-0.111-0.857-0.167-1.439-0.167H140.482z"/>
		<path fill="#232E38" d="M162.822,37.32c-0.4,0-0.702-0.057-0.905-0.165c-0.208-0.11-0.378-0.336-0.513-0.678l-0.296-0.776
			c-0.348,0.3-0.697,0.563-1.021,0.787c-0.326,0.229-0.659,0.42-1.012,0.581c-0.348,0.154-0.718,0.272-1.106,0.353
			c-0.396,0.073-0.836,0.112-1.315,0.112c-0.639,0-1.228-0.083-1.749-0.249c-0.526-0.17-0.974-0.417-1.342-0.74
			c-0.363-0.328-0.645-0.731-0.842-1.214c-0.203-0.486-0.304-1.045-0.304-1.679c0-0.5,0.132-1.01,0.381-1.535
			c0.261-0.525,0.696-1.004,1.319-1.429c0.625-0.433,1.466-0.794,2.522-1.083c1.064-0.291,2.393-0.449,4.005-0.487v-0.6
			c0-0.825-0.166-1.418-0.503-1.783c-0.344-0.367-0.826-0.55-1.445-0.55c-0.505,0-0.909,0.053-1.227,0.163
			c-0.312,0.108-0.598,0.23-0.849,0.366c-0.249,0.136-0.487,0.26-0.725,0.365c-0.24,0.111-0.516,0.164-0.844,0.164
			c-0.286,0-0.535-0.071-0.737-0.216c-0.198-0.146-0.357-0.318-0.489-0.517l-0.752-1.318c0.846-0.747,1.793-1.31,2.825-1.675
			c1.035-0.368,2.152-0.549,3.336-0.549c0.848,0,1.617,0.139,2.298,0.413c0.687,0.278,1.267,0.662,1.736,1.155
			c0.477,0.491,0.847,1.078,1.095,1.758c0.249,0.68,0.381,1.421,0.381,2.225v8.8H162.822z M157.985,34.751
			c0.54,0,1.018-0.097,1.428-0.284c0.407-0.192,0.815-0.497,1.232-0.923v-1.956c-0.836,0.036-1.528,0.107-2.072,0.217
			c-0.553,0.107-0.974,0.245-1.294,0.409c-0.317,0.164-0.536,0.348-0.657,0.556c-0.125,0.206-0.181,0.432-0.181,0.678
			c0,0.48,0.131,0.816,0.395,1.012C157.092,34.653,157.486,34.751,157.985,34.751z"/>
		<path fill="#232E38" d="M177.777,26.58c-0.123,0.155-0.245,0.275-0.369,0.365c-0.114,0.093-0.28,0.136-0.494,0.136
			c-0.212,0-0.399-0.049-0.566-0.145c-0.171-0.104-0.352-0.216-0.566-0.337c-0.208-0.122-0.451-0.231-0.731-0.332
			c-0.28-0.099-0.625-0.151-1.044-0.151c-0.514,0-0.957,0.097-1.336,0.286c-0.373,0.189-0.69,0.462-0.93,0.817
			c-0.246,0.353-0.432,0.785-0.546,1.295c-0.113,0.511-0.174,1.089-0.174,1.73c0,1.35,0.256,2.388,0.782,3.112
			c0.519,0.724,1.237,1.084,2.145,1.084c0.492,0,0.884-0.061,1.165-0.182c0.286-0.121,0.529-0.26,0.723-0.411
			c0.201-0.148,0.389-0.284,0.556-0.412c0.166-0.127,0.378-0.189,0.628-0.189c0.333,0,0.593,0.123,0.759,0.366l1.228,1.505
			c-0.437,0.5-0.895,0.903-1.378,1.22c-0.478,0.31-0.965,0.555-1.466,0.733c-0.508,0.174-1.008,0.295-1.516,0.365
			c-0.511,0.067-1.005,0.101-1.481,0.101c-0.858,0-1.686-0.159-2.464-0.489c-0.784-0.324-1.472-0.797-2.062-1.418
			c-0.592-0.621-1.064-1.383-1.412-2.286c-0.349-0.904-0.521-1.939-0.521-3.097c0-1.012,0.144-1.959,0.452-2.843
			c0.3-0.883,0.752-1.647,1.341-2.294c0.59-0.647,1.328-1.156,2.202-1.527c0.875-0.369,1.883-0.556,3.035-0.556
			c1.101,0,2.067,0.175,2.905,0.529c0.83,0.352,1.584,0.867,2.254,1.546L177.777,26.58z"/>
		<path fill="#232E38" d="M190.076,37.32c-0.393,0-0.69-0.057-0.892-0.165c-0.215-0.11-0.381-0.336-0.514-0.678l-0.305-0.776
			c-0.351,0.3-0.689,0.563-1.017,0.787c-0.328,0.229-0.661,0.42-1.008,0.581c-0.349,0.154-0.723,0.272-1.118,0.353
			c-0.395,0.073-0.825,0.112-1.309,0.112c-0.64,0-1.222-0.083-1.747-0.249c-0.524-0.17-0.977-0.417-1.341-0.74
			c-0.37-0.328-0.648-0.731-0.846-1.214c-0.204-0.486-0.302-1.045-0.302-1.679c0-0.5,0.13-1.01,0.386-1.535
			c0.248-0.525,0.69-1.004,1.313-1.429c0.624-0.433,1.461-0.794,2.525-1.083c1.055-0.291,2.396-0.449,4.008-0.487v-0.6
			c0-0.825-0.168-1.418-0.512-1.783c-0.337-0.367-0.826-0.55-1.449-0.55c-0.498,0-0.904,0.053-1.222,0.163
			c-0.317,0.108-0.598,0.23-0.847,0.366c-0.249,0.136-0.492,0.26-0.729,0.365c-0.232,0.111-0.514,0.164-0.841,0.164
			c-0.292,0-0.53-0.071-0.732-0.216c-0.202-0.146-0.358-0.318-0.487-0.517l-0.764-1.318c0.851-0.747,1.797-1.31,2.831-1.675
			c1.039-0.368,2.152-0.549,3.335-0.549c0.854,0,1.617,0.139,2.303,0.413c0.687,0.278,1.263,0.662,1.735,1.155
			c0.479,0.491,0.842,1.078,1.096,1.758c0.251,0.68,0.381,1.421,0.381,2.225v8.8H190.076z M185.251,34.751
			c0.544,0,1.018-0.097,1.424-0.284c0.404-0.192,0.814-0.497,1.237-0.923v-1.956c-0.849,0.036-1.541,0.107-2.078,0.217
			c-0.548,0.107-0.979,0.245-1.292,0.409c-0.317,0.164-0.534,0.348-0.659,0.556c-0.124,0.206-0.182,0.432-0.182,0.678
			c0,0.48,0.132,0.816,0.396,1.012C184.355,34.653,184.742,34.751,185.251,34.751z"/>
	</g>
	<g>
		<path fill="#017AB1" d="M105.502,47.378c-0.159-0.344-0.37-0.664-0.662-0.93c-0.267-0.265-0.589-0.478-0.958-0.61
			c-0.374-0.159-0.773-0.239-1.171-0.239c-0.398,0-0.799,0.081-1.146,0.239c-0.345,0.132-0.662,0.345-0.929,0.61
			c-0.268,0.266-0.478,0.586-0.636,0.93c-0.16,0.349-0.24,0.72-0.24,1.118c0,0.4,0.08,0.771,0.24,1.116
			c0.158,0.347,0.368,0.665,0.636,0.932c0.267,0.267,0.584,0.454,0.929,0.61c0.347,0.136,0.747,0.216,1.146,0.216
			c0.397,0,0.797-0.081,1.171-0.216c0.369-0.156,0.691-0.343,0.958-0.61c0.292-0.267,0.503-0.585,0.662-0.932
			c0.158-0.345,0.24-0.716,0.24-1.116C105.742,48.098,105.66,47.727,105.502,47.378z"/>
		<rect x="100.104" y="53.072" fill="#017AB1" width="4.948" height="16.508"/>
		<path fill="#017AB1" d="M110.904,69.591V53.048h2.938c0.244,0,0.444,0.024,0.612,0.063c0.161,0.042,0.302,0.11,0.411,0.201
			c0.113,0.09,0.197,0.21,0.259,0.359c0.059,0.149,0.109,0.33,0.151,0.542l0.239,1.404c0.52-0.893,1.116-1.599,1.781-2.114
			c0.661-0.516,1.424-0.774,2.286-0.774c0.744,0,1.353,0.177,1.82,0.526l-0.322,3.639c-0.047,0.233-0.135,0.393-0.261,0.477
			c-0.119,0.086-0.291,0.125-0.504,0.125c-0.082,0-0.197-0.004-0.333-0.015c-0.14-0.01-0.279-0.021-0.431-0.039
			c-0.15-0.017-0.301-0.032-0.457-0.049c-0.155-0.014-0.291-0.023-0.426-0.023c-0.718,0-1.299,0.194-1.725,0.583
			c-0.433,0.389-0.796,0.923-1.093,1.602v10.035H110.904z"/>
		<path fill="#017AB1" d="M131.39,69.848c-0.788,0-1.486-0.113-2.084-0.348c-0.597-0.226-1.104-0.55-1.511-0.972
			c-0.411-0.421-0.723-0.925-0.936-1.522c-0.213-0.597-0.317-1.257-0.317-1.995v-8.549h-1.408c-0.255,0-0.479-0.081-0.655-0.247
			c-0.177-0.167-0.27-0.408-0.27-0.727v-1.929l2.636-0.51l0.976-4.037c0.119-0.508,0.483-0.764,1.074-0.764h2.59v4.833h4.099v3.382
			h-4.099v8.217c0,0.381,0.093,0.696,0.284,0.944c0.178,0.256,0.452,0.381,0.801,0.381c0.183,0,0.331-0.021,0.458-0.058
			c0.12-0.037,0.228-0.08,0.316-0.127c0.088-0.049,0.177-0.092,0.255-0.127c0.078-0.039,0.171-0.054,0.282-0.054
			c0.148,0,0.269,0.031,0.356,0.1c0.088,0.069,0.183,0.18,0.28,0.326l1.503,2.347c-0.646,0.478-1.368,0.839-2.157,1.077
			C133.063,69.724,132.236,69.848,131.39,69.848z"/>
		<path fill="#017AB1" d="M147.581,52.794c1.253,0,2.396,0.194,3.432,0.588c1.027,0.396,1.917,0.958,2.654,1.692
			c0.737,0.732,1.31,1.624,1.72,2.672c0.41,1.047,0.618,2.226,0.618,3.535c0,1.318-0.208,2.503-0.618,3.563
			c-0.41,1.061-0.982,1.959-1.72,2.697c-0.737,0.739-1.627,1.31-2.654,1.708c-1.035,0.397-2.179,0.599-3.432,0.599
			c-1.266,0-2.416-0.201-3.449-0.599c-1.045-0.398-1.934-0.969-2.687-1.708c-0.748-0.737-1.33-1.636-1.74-2.697
			c-0.406-1.06-0.613-2.245-0.613-3.563c0-1.309,0.207-2.488,0.613-3.535c0.41-1.049,0.992-1.94,1.74-2.672
			c0.753-0.733,1.642-1.296,2.687-1.692C145.165,52.989,146.315,52.794,147.581,52.794z M147.581,66.177
			c1.139,0,1.976-0.402,2.51-1.203c0.542-0.805,0.807-2.023,0.807-3.663c0-1.638-0.265-2.854-0.807-3.652
			c-0.534-0.797-1.371-1.198-2.51-1.198c-1.174,0-2.03,0.4-2.566,1.198c-0.545,0.798-0.814,2.015-0.814,3.652
			c0,1.639,0.27,2.858,0.814,3.663C145.551,65.774,146.407,66.177,147.581,66.177z"/>
		<path fill="#017AB1" d="M160.215,67.084c0-0.38,0.071-0.738,0.217-1.068c0.146-0.329,0.338-0.615,0.594-0.859
			c0.249-0.244,0.54-0.439,0.877-0.585c0.348-0.143,0.711-0.21,1.123-0.21c0.394,0,0.759,0.067,1.095,0.21
			c0.346,0.146,0.64,0.341,0.896,0.585s0.458,0.53,0.598,0.859c0.146,0.33,0.218,0.688,0.218,1.068c0,0.385-0.072,0.744-0.218,1.079
			c-0.14,0.334-0.342,0.626-0.598,0.87s-0.55,0.436-0.896,0.57c-0.336,0.141-0.701,0.209-1.095,0.209
			c-0.412,0-0.775-0.068-1.123-0.209c-0.337-0.135-0.628-0.326-0.877-0.57c-0.256-0.244-0.448-0.536-0.594-0.87
			C160.286,67.828,160.215,67.469,160.215,67.084z"/>
		<path fill="#017AB1" d="M174.079,48.519c0,0.392-0.078,0.763-0.239,1.107c-0.163,0.345-0.374,0.649-0.657,0.91
			c-0.273,0.261-0.597,0.469-0.965,0.623c-0.364,0.152-0.754,0.229-1.169,0.229c-0.404,0-0.785-0.076-1.133-0.229
			c-0.348-0.154-0.666-0.361-0.931-0.623c-0.275-0.261-0.487-0.565-0.641-0.91c-0.154-0.345-0.232-0.716-0.232-1.107
			c0-0.407,0.078-0.783,0.232-1.134c0.153-0.35,0.365-0.659,0.641-0.926c0.265-0.263,0.583-0.473,0.931-0.621
			s0.729-0.224,1.133-0.224c0.415,0,0.805,0.076,1.169,0.224c0.368,0.148,0.691,0.358,0.965,0.621
			c0.283,0.267,0.494,0.576,0.657,0.926C174.001,47.736,174.079,48.112,174.079,48.519z M173.569,53.048v16.543h-4.947V53.048
			H173.569z"/>
		<path fill="#017AB1" d="M188.943,69.591c-0.618,0-1.017-0.277-1.21-0.828l-0.384-1.264c-0.328,0.354-0.675,0.67-1.034,0.96
			c-0.364,0.287-0.759,0.533-1.176,0.74c-0.419,0.208-0.873,0.369-1.36,0.478c-0.479,0.115-1.002,0.171-1.564,0.171
			c-0.862,0-1.657-0.19-2.396-0.576c-0.731-0.384-1.362-0.936-1.9-1.657c-0.526-0.725-0.942-1.61-1.248-2.655
			c-0.302-1.05-0.452-2.242-0.452-3.585c0-1.231,0.16-2.377,0.505-3.436c0.343-1.057,0.821-1.973,1.444-2.745
			c0.622-0.772,1.371-1.374,2.239-1.811c0.871-0.434,1.84-0.653,2.89-0.653c0.851,0,1.572,0.125,2.165,0.375
			c0.589,0.251,1.124,0.578,1.602,0.982V45.71h4.947v23.88H188.943z M183.938,66.05c0.36,0,0.688-0.034,0.979-0.104
			c0.297-0.067,0.562-0.166,0.8-0.296c0.256-0.127,0.483-0.285,0.701-0.478c0.217-0.192,0.432-0.415,0.645-0.67v-7.02
			c-0.385-0.413-0.791-0.705-1.221-0.867c-0.432-0.165-0.884-0.251-1.367-0.251c-0.453,0-0.873,0.094-1.259,0.271
			c-0.383,0.183-0.716,0.474-0.996,0.872c-0.283,0.399-0.505,0.917-0.659,1.556c-0.161,0.635-0.24,1.407-0.24,2.312
			c0,0.875,0.062,1.608,0.193,2.202c0.124,0.599,0.302,1.08,0.528,1.445c0.228,0.365,0.505,0.629,0.825,0.79
			C183.187,65.97,183.547,66.05,183.938,66.05z"/>
		<path fill="#017AB1" d="M92.42,69.848c-0.789,0-1.48-0.113-2.08-0.348c-0.603-0.226-1.109-0.55-1.514-0.972
			c-0.413-0.421-0.724-0.925-0.938-1.522c-0.211-0.597-0.317-1.257-0.317-1.995v-8.549h-1.406c-0.253,0-0.47-0.081-0.653-0.247
			c-0.181-0.167-0.27-0.408-0.27-0.727v-1.929l2.634-0.51l0.971-4.037c0.13-0.508,0.49-0.764,1.085-0.764h2.586v4.833h4.096v3.382
			h-4.096v8.217c0,0.381,0.089,0.696,0.279,0.944c0.186,0.256,0.453,0.381,0.805,0.381c0.179,0,0.331-0.021,0.454-0.058
			c0.122-0.037,0.229-0.08,0.318-0.127c0.091-0.049,0.176-0.092,0.259-0.127c0.076-0.039,0.173-0.054,0.278-0.054
			c0.148,0,0.268,0.031,0.358,0.1c0.089,0.069,0.184,0.18,0.277,0.326l1.5,2.347c-0.64,0.478-1.358,0.839-2.151,1.077
			C94.096,69.724,93.269,69.848,92.42,69.848z"/>
	</g>
	<path fill="#084426" d="M47.504,115.307c0.008-0.006,0.012-0.006,0.018-0.012v-0.028L47.504,115.307z"/>
	<g>
		<g id="XMLID_1_">
			<polygon id="XMLID_34_" fill="#70361B" points="19.877,94.272 9.011,94.6 5.146,108.006 18.343,105.33 			"/>
			<g id="XMLID_31_">
				<defs>
					<path id="XMLID_32_" d="M68.888,43.316c0,0,10.479,31.958,12.559,43.093c2.078,11.137-2.94,22.125-15.988,24.542
						c-13.049,2.412-40.669,8.642-47.477-10.99c-6.804-19.626-9.563-45.04-9.563-45.04l41.683-20.478L68.888,43.316z"/>
				</defs>
				<use xlink:href="#XMLID_32_"  overflow="visible" fill="#FAC8BA"/>
				<clipPath id="XMLID_36_">
					<use xlink:href="#XMLID_32_"  overflow="visible"/>
				</clipPath>
				<path id="XMLID_33_" clip-path="url(#XMLID_36_)" fill="#F09C80" d="M62.128,38.066c0,0,13.434,38.241,15.434,47.762
					c1.999,9.515,0.599,19.822-9.289,23.503c-9.89,3.678-25.075,5.97-36.251,1.423c-11.174-4.548-17.126-15.968-17.126-15.968
					L5.736,51.882l43.808-18.305L62.128,38.066z"/>
			</g>
			<g id="XMLID_28_">
				<defs>
					<path id="XMLID_29_" d="M18.282,86.871c0,0-3.306-5.32-7.708-4.855c-4.396,0.466-3.646,14.402,7.862,9.382L18.282,86.871z"/>
				</defs>
				<use xlink:href="#XMLID_29_"  overflow="visible" fill="#FAC8BA"/>
				<clipPath id="XMLID_37_">
					<use xlink:href="#XMLID_29_"  overflow="visible"/>
				</clipPath>
				<path id="XMLID_30_" clip-path="url(#XMLID_37_)" fill="#F09C80" d="M19.378,91.071c0,0-6.607,1.603-8.559-1.622
					c-1.947-3.224-0.146-7.727,3.535-6.212c3.684,1.51,4.439,2.959,4.439,2.959L19.378,91.071z"/>
			</g>
			<path id="XMLID_27_" fill="#A05725" d="M77.225,69.038c0,0-4.625-39.327-26.33-48.33c0,0-37.285-15.599-44.575,33.024
				c0,0-1.621,19.943,6.499,28.66l32.626-41.07l24.851,6.894L77.225,69.038z"/>
			<g id="XMLID_22_" opacity="0.5">
				<defs>
					<path id="XMLID_23_" opacity="0.5" d="M77.225,69.038c0,0-4.625-39.327-26.33-48.33c0,0-37.285-15.599-44.575,33.024
						c0,0-1.621,19.943,6.499,28.66l32.626-41.07l24.851,6.894L77.225,69.038z"/>
				</defs>
				<clipPath id="XMLID_38_">
					<use xlink:href="#XMLID_23_"  overflow="visible"/>
				</clipPath>
				<path id="XMLID_26_" clip-path="url(#XMLID_38_)" fill="#70361B" d="M4.795,40.574c35.173-5.155,72.701,8.418,73.076,8.555
					l0.497-1.356c-0.383-0.138-38.241-13.837-73.781-8.623L4.795,40.574z"/>
				<path id="XMLID_25_" clip-path="url(#XMLID_38_)" fill="#70361B" d="M74.118,44.621l0.644-1.291
					c-0.25-0.126-25.557-12.665-69.169-22.194l-0.308,1.408C48.703,32.032,73.864,44.497,74.118,44.621z"/>
				<path id="XMLID_24_" clip-path="url(#XMLID_38_)" fill="#70361B" d="M-1.601,64.928c27.319-13.817,76.217-13.197,76.706-13.189
					l0.027-1.443c-0.126-0.005-12.539-0.182-28.183,1.361C32.482,53.09,12.204,56.329-2.255,63.645L-1.601,64.928z"/>
			</g>
			<path id="XMLID_21_" fill="#85441E" d="M65.741,33.424c0,0-9.176-17.845-29.076-17.542c-19.897,0.3-31.998,52.424-24.684,67.445
				L65.741,33.424z"/>
			<polygon id="XMLID_20_" fill="#522D2F" points="21.093,74.058 20.156,91.318 12.819,82.393 			"/>
			<g id="XMLID_17_">
				<path id="XMLID_19_" fill="#522D2F" d="M58.168,82.268c0,0,0.579-2.344,3.063-2.715c2.485-0.372,6.159,2.829,9.017-0.157
					c0,0-0.382,7.72-10.521,5.532C59.727,84.928,58.61,84.279,58.168,82.268z"/>
				<path id="XMLID_18_" fill="#522D2F" d="M58.203,82.064c0,0-1.756-2.338-4.695-1.582c-2.935,0.756-5.513,6.051-10.108,4.075
					c0,0,4.065,8.421,14.32,1.203C57.72,85.761,58.662,84.509,58.203,82.064z"/>
			</g>
			<g id="XMLID_12_" opacity="0.5">
				<defs>
					<path id="XMLID_13_" opacity="0.5" d="M65.741,33.424c0,0-9.176-17.845-29.076-17.542c-19.897,0.3-31.998,52.424-24.684,67.445
						L65.741,33.424z"/>
				</defs>
				<clipPath id="XMLID_39_">
					<use xlink:href="#XMLID_13_"  overflow="visible"/>
				</clipPath>
				<path id="XMLID_16_" clip-path="url(#XMLID_39_)" fill="#70361B" d="M10.864,85.281l1.444,0.095
					c0.007-0.117,0.786-11.874,1.513-15.313c0.581-2.776,2.06-8.324,3.245-12.779c0.321-1.191,0.615-2.306,0.874-3.28
					c1.244-4.728,1.951-6.781,4.518-12.188c0.798-1.682,1.477-3.401,2.135-5.062c1.568-3.967,3.192-8.073,6.697-12.6
					c4.895-6.329,10.129-8.615,10.185-8.634l-0.57-1.33c-0.228,0.099-5.63,2.452-10.758,9.081
					c-3.628,4.689-5.292,8.888-6.899,12.951c-0.679,1.717-1.318,3.334-2.097,4.973c-2.619,5.513-3.333,7.606-4.604,12.443
					c-0.258,0.974-0.554,2.087-0.872,3.272C14.482,61.385,13,66.954,12.405,69.765C11.658,73.31,10.901,84.8,10.864,85.281z"/>
				<path id="XMLID_15_" clip-path="url(#XMLID_39_)" fill="#70361B" d="M13.511,82.604c0.021-0.066,2.049-6.717,5.579-13.187
					c1.707-3.128,4.246-6.837,6.932-10.758c2.928-4.271,5.944-8.682,8.078-12.633c4.1-7.621,7.505-11.835,11.211-16.177
					c3.795-4.44,14.824-10.855,14.936-10.923l-0.726-1.248c-0.459,0.268-11.354,6.606-15.3,11.231
					c-3.77,4.408-7.226,8.689-11.394,16.431c-2.089,3.887-5.089,8.265-7.994,12.503c-2.708,3.956-5.27,7.691-7.016,10.884
					c-3.601,6.609-5.668,13.391-5.69,13.457L13.511,82.604z"/>
				<path id="XMLID_14_" clip-path="url(#XMLID_39_)" fill="#70361B" d="M12.548,83.769c0.119-0.153,12.142-15.325,17.506-21.221
					c1.846-2.029,4.703-4.848,7.736-7.832c5.931-5.848,12.658-12.475,14.544-15.909c2.674-4.855,14.743-12.957,14.864-13.038
					l-0.799-1.198c-0.508,0.336-12.486,8.378-15.327,13.543c-1.784,3.245-8.434,9.795-14.295,15.571
					c-3.043,3-5.918,5.835-7.794,7.894c-5.389,5.926-17.446,21.14-17.568,21.292L12.548,83.769z"/>
			</g>
			<path id="XMLID_11_" fill="#26101D" d="M38.018,75.86c-0.057,1.193,0.869,2.204,2.063,2.261c1.196,0.058,2.208-0.869,2.261-2.063
				c0.056-1.194-0.869-2.208-2.059-2.26C39.085,73.743,38.073,74.666,38.018,75.86z"/>
			<path id="XMLID_10_" fill="#26101D" d="M60.44,70.681c-0.056,1.189,0.868,2.203,2.063,2.257c1.195,0.055,2.205-0.869,2.261-2.06
				c0.057-1.196-0.869-2.209-2.059-2.267C61.511,68.56,60.497,69.486,60.44,70.681z"/>
			<path id="XMLID_9_" fill="#522C2F" d="M42.897,66.533c0.279-2.218-3.436-2.546-5.941-1.574c-2.512,0.972-4.387,3.311-2.81,4.921
				C35.727,71.491,42.679,68.29,42.897,66.533z"/>
			<path id="XMLID_8_" fill="#522C2F" d="M67.451,65.905c1.547,0.702,1.483-4.711-1.719-5.252c-3.207-0.542-5.321,0.891-5.814,2.461
				c-0.495,1.572,1.065,3.43,2.148,2.855C63.15,65.393,65.392,64.979,67.451,65.905z"/>
			<g id="XMLID_2_">
				<defs>
					<path id="XMLID_3_" d="M64.765,87.387c0,0-17.875,3.77-17.991,4.146c-0.12,0.38,1.865,12.783,11.737,9.676
						C68.392,98.107,64.765,87.387,64.765,87.387z"/>
				</defs>
				<use xlink:href="#XMLID_3_"  overflow="visible" fill="#8F3B35"/>
				<clipPath id="XMLID_40_">
					<use xlink:href="#XMLID_3_"  overflow="visible"/>
				</clipPath>
				<g id="XMLID_5_" clip-path="url(#XMLID_40_)">
					<defs>
						<path id="XMLID_6_" d="M67.923,98.75c0,0-6.068-4.009-13.999-4.032c-7.925-0.026-7.68,3.836-7.68,3.836l7.496,5.735
							L67.923,98.75z"/>
					</defs>
					<use xlink:href="#XMLID_6_"  overflow="visible" fill="#451512"/>
					<clipPath id="XMLID_41_">
						<use xlink:href="#XMLID_6_"  overflow="visible"/>
					</clipPath>
					<path id="XMLID_7_" clip-path="url(#XMLID_41_)" fill="#64201C" d="M65.955,98.75c0,0-1.168-1.833-7.866-2.304
						c-6.7-0.473-11.986,5.511-11.986,5.511l11.978,2.343L65.955,98.75z"/>
				</g>
				<path id="XMLID_4_" clip-path="url(#XMLID_40_)" fill="#F4ECDC" d="M63.729,86.719c0,0,0.567,3.35-0.846,3.952
					c-1.414,0.597-13.04,1.859-14.363,2.45c-1.328,0.595-0.998-2.904-0.998-2.904L63.729,86.719z"/>
			</g>
		</g>
		<g>
			<path fill="#F19E80" d="M108.528,89.596c-1.169,3.713-3.412,7.124-5.395,9.399c-1.243,1.42-3.4,1.565-4.817,0.321
				c-1.414-1.24-1.564-3.391-0.327-4.811c0.091-0.108,7.282-8.668,3.284-12.984c-1.28-1.384-1.195-3.546,0.188-4.827
				c1.381-1.284,3.543-1.197,4.822,0.186C109.789,80.673,109.873,85.335,108.528,89.596z"/>
			<path fill="#1A1A1A" d="M85.795,113.784c-0.013,0.06-0.021,0.113-0.034,0.174c0.005,0.013,0,0.023,0,0.044
				c-0.068,0.45-0.12,0.897-0.154,1.355c-0.078,0.942-0.095,1.881-0.039,2.822c0.008,0.104,0.049,0.514,0.053,0.609
				c0.017,0.118,0.024,0.235,0.043,0.353c0.062,0.426,0.128,0.845,0.215,1.272c0.137,0.678,0.301,1.362,0.507,2.023
				c0.095,0.307,0.188,0.61,0.295,0.919c0.031,0.077,0.062,0.154,0.087,0.235c0.026,0.063,0.057,0.132,0.069,0.176
				c0.511,1.25,1.112,2.461,1.806,3.623c0.32,0.532,0.647,1.046,0.991,1.559c3.481-4.721,8.738-10.089,15.573-15.795l-8.245-9.883
				c-4.242,3.539-7.95,6.978-11.122,10.309C85.822,113.648,85.808,113.715,85.795,113.784z"/>
			<g>
				<defs>
					<path id="SVGID_2_" d="M100.964,117.268c0,0-9.047-19.296,0.063-29.462c9.112-10.168,18.833,3.613,18.358,7.957
						C118.913,100.11,118.618,120.689,100.964,117.268z"/>
				</defs>
				<use xlink:href="#SVGID_2_"  overflow="visible" fill="#F19E80"/>
				<clipPath id="SVGID_3_">
					<use xlink:href="#SVGID_2_"  overflow="visible"/>
				</clipPath>
				<path clip-path="url(#SVGID_3_)" fill="#FBC9BB" d="M93.829,107.9c0,0,2.979-5.386,6.821,2.802
					c3.851,8.189,5.088-10.035,4.126-13.894c-0.969-3.877,1.426-12.312,3.485-11.984c2.062,0.323,20.323,3.311,4.354-6.116
					c-15.967-9.428-22.041,22.137-22.041,22.137L93.829,107.9z"/>
			</g>
		</g>
	</g>
</g>
</svg>
